<svg xmlns="http://www.w3.org/2000/svg" xmlns:xlink="http://www.w3.org/1999/xlink" width="209" height="199">
	<path fill="#FFC83E" d="M38.4249 127.627C38.7137 127.744 39.237 127.875 39.4724 128.054C40.6218 128.924 42.1218 134.306 42.7052 135.989C48.0235 151.334 49.4917 151.674 64.2808 157.105C66.4929 157.918 69.1038 158.594 71.1506 159.71C71.6952 160.007 71.8108 160.315 71.9909 160.879C71.7255 161.627 71.193 161.825 70.4559 162.055C66.9682 163.141 63.5212 164.615 60.0897 165.894C49.0347 170.012 47.2367 172.88 43.3304 183.77C42.1157 187.156 41.1407 191.047 39.3694 194.161C37.7168 193.685 36.8561 190.852 36.3163 189.351C33.4522 181.387 32.1161 172.371 23.805 168.131C21.1864 166.795 18.3092 165.946 15.5308 165.002C12.0811 163.83 8.58516 162.838 5.52638 160.796C14.0619 154.983 26.2203 155.861 31.506 145.474C34.0757 140.425 35.6944 131.955 38.36 127.728L38.4249 127.627Z"/>
	<path fill="#FFC83E" d="M54.0414 8.09613C54.1606 8.11292 54.2818 8.13063 54.3985 8.16045C55.1417 8.35033 55.4435 8.80427 55.8035 9.43801C57.0165 11.5729 57.7604 14.1269 58.6189 16.4312C60.5682 21.6635 62.3661 27.0668 64.7662 32.1086Q65.514 33.6644 66.4659 35.1044Q67.4179 36.5444 68.5564 37.8419C70.3031 39.8465 72.6383 41.482 74.9866 42.7059C80.3983 45.5265 86.6915 47.3494 92.4472 49.4038C94.2429 50.0448 96.3268 50.5765 98.0223 51.44C98.5285 51.6978 98.8601 51.988 99.1406 52.4838C99.0905 53.6201 97.619 54.1982 96.68 54.6664C89.2052 58.3938 78.1009 60.1643 71.302 65.1159C64.1577 70.319 61.0619 82.5455 58.1886 90.6335C57.3379 93.028 56.6012 95.9144 54.7044 97.6909L54.1983 97.6292C53.6693 97.3266 53.3343 97.001 53.0363 96.4652C51.7243 94.106 50.9217 91.3001 50.0142 88.7648C48.4389 84.3637 46.8859 79.9506 45.0985 75.6296C43.8522 72.6166 42.1886 69.3456 39.8765 67.0038C33.9783 61.0296 20.7583 58.0844 12.8524 54.7759C11.7964 54.334 10.4622 53.7736 10.0032 52.6481C10.7137 50.9992 24.0276 46.8132 26.6228 45.7634C29.8163 44.4715 33.269 43.2294 36.1649 41.3446C44.1935 36.1193 47.3779 24.6978 50.4028 16.0646C51.3221 13.4407 52.1722 10.1886 54.0414 8.09613Z"/>
	<path fill="#FFC83E" d="M141.045 174.284C140.161 173.786 139.387 173.321 138.794 172.468C136.858 169.682 135.982 165.654 134.908 162.438C132.427 155.013 128.374 142.743 124.221 136.356C122.262 133.346 119.604 130.54 116.709 128.414C109.984 123.476 97.9147 119.914 89.8991 116.864C87.4588 115.935 79.0426 113.288 77.9964 111.19C78.0149 109.818 79.1479 109.238 80.2452 108.606C83.009 107.014 86.2527 106.004 89.2464 104.936C97.3187 102.058 109.323 98.6878 116.251 93.8354C124.157 88.2986 127.275 79.9977 130.484 71.3613Q133.184 64.0738 135.747 56.7367C136.586 54.3879 137.621 50.5206 139.303 48.6869C139.815 48.1292 140.261 48.0383 140.975 48.019C141.838 48.3623 142.231 48.804 142.68 49.6117C144.246 52.4281 145.177 55.8747 146.303 58.9115C147.88 63.1638 149.568 67.3695 151.172 71.6109C152.444 74.9729 153.6 78.4506 155.117 81.7096C156.307 84.2653 157.769 86.6052 159.629 88.7286C161.333 90.6739 163.439 92.7724 165.628 94.1806C175.128 100.293 189.437 103.223 199.737 107.956C200.909 108.495 202.249 109.153 203.029 110.209C203.07 110.949 203.026 111.494 202.789 112.198C201.315 113.587 186.824 118.594 183.612 119.75C171.486 124.214 161.056 127.235 155.144 140.056C153.604 143.395 152.403 146.919 151.158 150.378C149.391 154.638 147.795 158.996 146.222 163.331C145.173 166.223 144.247 169.343 142.766 172.044C142.309 172.875 141.679 173.585 141.045 174.284Z"/>
</svg>